<svg xmlns="http://www.w3.org/2000/svg" viewBox="0 0 512 512"><g><path d="M256 0C114.836 0 0 114.836 0 256s114.836 256 256 256 256-114.836 256-256S397.164 0 256 0zm0 472c-119.103 0-216-96.897-216-216S136.897 40 256 40s216 96.897 216 216-96.897 216-216 216z" fill="#F9B233"/><path d="M256 96c-88.225 0-160 71.775-160 160s71.775 160 160 160 160-71.775 160-160S344.225 96 256 96zm0 288c-70.692 0-128-57.308-128-128s57.308-128 128-128 128 57.308 128 128-57.308 128-128 128z" fill="#231F20"/><circle cx="256" cy="256" r="80" fill="#F9B233"/><circle cx="256" cy="256" r="48" fill="#231F20"/></g></svg>